<?xml version="1.0" encoding="UTF-8" standalone="no"?>
<!-- Created with Inkscape (http://www.inkscape.org/) -->

<svg
   width="162.51134mm"
   height="173.88257mm"
   viewBox="0 0 162.51134 173.88257"
   version="1.1"
   id="svg5"
   inkscape:version="1.1.2 (b8e25be8, 2022-02-05)"
   sodipodi:docname="bunny_1.svg"
   xmlns:inkscape="http://www.inkscape.org/namespaces/inkscape"
   xmlns:sodipodi="http://sodipodi.sourceforge.net/DTD/sodipodi-0.dtd"
   xmlns="http://www.w3.org/2000/svg"
   xmlns:svg="http://www.w3.org/2000/svg">
  <sodipodi:namedview
     id="namedview7"
     pagecolor="#ffffff"
     bordercolor="#666666"
     borderopacity="1.0"
     inkscape:pageshadow="2"
     inkscape:pageopacity="0.0"
     inkscape:pagecheckerboard="0"
     inkscape:document-units="mm"
     showgrid="false"
     inkscape:zoom="0.18446023"
     inkscape:cx="181.61097"
     inkscape:cy="479.77823"
     inkscape:window-width="1195"
     inkscape:window-height="771"
     inkscape:window-x="267"
     inkscape:window-y="25"
     inkscape:window-maximized="0"
     inkscape:current-layer="layer1"
     fit-margin-top="0"
     fit-margin-left="0"
     fit-margin-right="0"
     fit-margin-bottom="0" />
  <defs
     id="defs2" />
  <g
     inkscape:label="Layer 1"
     inkscape:groupmode="layer"
     id="layer1"
     transform="translate(-18.830406,-22.941691)">
    <path
       style="fill:#f7f7f7;stroke-width:1;fill-opacity:1;stroke:#4d4d4d;stroke-opacity:1"
       d="m 71.697224,196.59914 c -5.33765,-0.62146 -8.48887,-2.12523 -9.88514,-4.71722 -0.67006,-1.24387 -1.05971,-2.81629 -1.34983,-5.44708 -0.27443,-2.4886 -1.45038,-3.69759 -4.88607,-5.02337 l -1.72196,-0.66447 -16.002,-0.15071 c -17.42554,-0.16411 -17.44945,-0.16619 -18.52904,-1.61219 -0.42322,-0.56686 -0.51239,-1.0488 -0.48947,-2.64533 0.0154,-1.0737 0.20206,-2.44019 0.41477,-3.03663 1.40785,-3.94778 6.24994,-8.83478 12.18977,-12.30283 l 1.96803,-1.14906 -0.79737,-0.98684 c -1.51983,-1.88093 -4.05274,-5.92307 -5.02676,-8.02191 -2.21886,-4.78127 -3.06493,-8.52285 -3.06493,-13.55409 0,-11.13905 5.29372,-22.06269 19.01027,-39.227836 4.15542,-5.20016 7.0171,-8.250628 9.57049,-10.201833 6.4586,-4.935444 13.79128,-7.318911 22.52801,-7.322665 6.28902,-0.0027 11.90106,1.083818 20.4403,3.957361 6.917406,2.32778 8.664386,2.430018 9.629576,0.563547 1.27334,-2.46238 -1.14168,-7.253621 -7.016586,-13.920407 -4.5889,-5.207445 -8.19252,-11.773018 -11.06774,-20.164749 -2.82217,-8.236898 -3.72206,-14.834802 -2.79263,-20.475254 0.66365,-4.027464 1.68498,-6.061995 3.40358,-6.780074 1.96613,-0.821501 4.18848,0.115228 10.15823,4.28173 6.951096,4.851417 10.417526,8.993023 18.779546,22.437345 2.08536,3.352801 4.6966,7.613018 5.80276,9.467147 l 2.01119,3.371149 0.17785,-2.253163 c 0.53201,-6.740154 3.64605,-16.324824 8.21668,-25.290085 1.19832,-2.3505 2.68445,-5.648683 3.30251,-7.329295 1.32649,-3.606941 1.9818,-4.561042 3.54193,-5.156862 1.60277,-0.612102 2.57825,-0.305175 3.27957,1.031886 0.45908,0.875231 0.53,1.445625 0.52071,4.188222 -0.0114,3.364875 -0.22971,4.970282 -1.40309,10.317404 -1.4129,6.438616 -2.01387,13.60208 -2.01118,23.972598 0.002,6.813396 0.11501,8.100482 0.73134,8.312336 0.22422,0.07707 2.80798,1.084128 5.74168,2.237898 6.2363,2.452619 10.50248,4.3528 12.86681,5.730946 3.56705,2.079191 6.77838,6.562301 14.65299,20.455988 1.81046,3.194306 3.81928,6.722236 4.46406,7.839836 1.69635,2.94032 2.26201,4.54422 2.28428,6.477 0.017,1.473 -0.10918,1.91115 -1.17007,4.064 -0.654,1.32715 -1.48706,3.48197 -1.85125,4.78849 -0.36419,1.30652 -0.8536,2.66767 -1.08759,3.02478 -2.34338,3.57645 -14.24642,8.95073 -19.82424,8.95073 h -1.24344 l -0.16154,1.911 c -0.20921,2.47503 -1.44856,5.77999 -3.07802,8.20815 -0.68803,1.02528 -2.76165,3.39241 -4.60806,5.26029 -3.74567,3.78924 -5.69317,6.48547 -7.20919,9.98084 -0.8282,1.90951 -2.28974,6.17815 -2.28974,6.68752 0,0.0795 0.68081,0.22161 1.5129,0.31575 1.82411,0.20638 4.73413,1.16523 6.33421,2.08714 3.68489,2.12308 7.76811,6.04434 10.41576,10.00262 1.93624,2.8947 2.02672,3.68505 0.57946,5.06178 -1.51476,1.44097 -3.4697,1.92841 -6.58165,1.64106 -2.47421,-0.22846 -20.82052,-0.26297 -21.04391,-0.0396 -0.0647,0.0647 0.16947,0.7343 0.52033,1.48802 2.03167,4.36444 -0.67909,6.61499 -8.8821,7.37418 -7.05759,0.65318 -12.51778,-0.4986 -19.87105,-4.19163 l -2.343796,-1.17713 -4.89457,5.1e-4 -4.89458,5.1e-4 -0.0263,1.46403 c -0.061,3.40139 -2.35003,5.1201 -7.83518,5.88301 -2.19461,0.30524 -7.5098,0.30807 -10.10957,0.005 z"
       id="path964" />
  </g>
</svg>
