<?xml version="1.0" encoding="UTF-8" standalone="no"?>
<!-- Created with Inkscape (http://www.inkscape.org/) -->

<svg
   width="124.87841mm"
   height="166.07587mm"
   viewBox="0 0 124.87841 166.07587"
   version="1.1"
   id="svg5"
   inkscape:version="1.1.2 (b8e25be8, 2022-02-05)"
   sodipodi:docname="bunny_3.svg"
   xmlns:inkscape="http://www.inkscape.org/namespaces/inkscape"
   xmlns:sodipodi="http://sodipodi.sourceforge.net/DTD/sodipodi-0.dtd"
   xmlns="http://www.w3.org/2000/svg"
   xmlns:svg="http://www.w3.org/2000/svg">
  <sodipodi:namedview
     id="namedview7"
     pagecolor="#ffffff"
     bordercolor="#666666"
     borderopacity="1.0"
     inkscape:pageshadow="2"
     inkscape:pageopacity="0.0"
     inkscape:pagecheckerboard="0"
     inkscape:document-units="mm"
     showgrid="false"
     fit-margin-top="0"
     fit-margin-left="0"
     fit-margin-right="0"
     fit-margin-bottom="0"
     inkscape:zoom="0.13314916"
     inkscape:cx="-431.84651"
     inkscape:cy="983.85901"
     inkscape:window-width="987"
     inkscape:window-height="762"
     inkscape:window-x="0"
     inkscape:window-y="25"
     inkscape:window-maximized="0"
     inkscape:current-layer="layer1" />
  <defs
     id="defs2" />
  <g
     inkscape:label="Layer 1"
     inkscape:groupmode="layer"
     id="layer1"
     transform="translate(-168.83594,221.73018)">
    <path
       style="fill:#000000;stroke-width:1"
       d="m -186.77157,205.14212 c -1.569,-0.28034 -2.27233,-1.01811 -2.04662,-2.14683 0.39119,-1.95633 3.04194,-5.46527 5.76356,-7.6295 2.33899,-1.85997 3.44833,-3.04637 4.15803,-4.4469 0.7362,-1.45283 2.18388,-5.3321 1.98986,-5.3321 -0.073,0 -0.4262,0.23086 -0.78492,0.51303 -0.35873,0.28219 -1.44123,0.7527 -2.40556,1.04562 -2.24834,0.6829 -5.86121,0.59931 -7.43635,-0.17209 -0.9072,-0.44427 -1.02324,-0.60635 -1.08366,-1.51356 -0.0882,-1.32458 0.73976,-2.74041 3.63918,-6.223 1.22122,-1.46685 2.38341,-3.05603 2.58264,-3.53149 0.47635,-1.1368 0.46077,-4.95206 -0.0297,-7.26747 -0.91623,-4.32557 -2.74712,-8.1075 -4.97814,-10.28304 -1.83762,-1.79189 -3.93428,-3.27858 -12.19534,-8.64735 -12.75499,-8.28934 -15.57523,-10.58746 -17.28582,-14.08565 -1.35595,-2.77294 -1.81951,-5.12856 -1.94941,-9.906 -0.12865,-4.73146 0.205,-8.17852 1.34443,-13.88953 l 0.64273,-3.22151 -1.19214,-1.60449 c -1.65056,-2.22146 -3.50764,-6.20781 -4.27788,-9.182863 -1.68588,-6.51162 -1.24666,-14.82157 0.93699,-17.72776 2.77134,-3.68831 4.00621,-9.56345 2.87591,-13.68285 -0.69815,-2.54445 -0.26673,-5.52625 1.26727,-8.75891 l 0.43275,-0.91196 -1.31836,-2.84805 c -1.74863,-3.77764 -4.82728,-9.44334 -6.58529,-12.11908 -1.41309,-2.15077 -3.07515,-3.95252 -5.59377,-6.06395 -2.19285,-1.83829 -4.3394,-5.45673 -6.21326,-10.47366 -1.25493,-3.35986 -1.98091,-5.9497 -3.19225,-11.38799 -1.16284,-5.2205899 -2.27875,-9.1805499 -4.71207,-16.7215497 -1.74564,-5.40987 -1.96943,-6.85328 -1.27173,-8.2024803 0.51398,-0.9939 2.29961,-2.26837 3.17821,-2.26837 2.06027,0 8.4713,4.7697603 18.26432,13.58857008 10.67438,9.61248002 21.56521,20.36032992 23.67932,23.36842992 3.5383,5.03456 5.54205,10.83219 5.54205,16.03527 v 1.87173 h 2.54 2.54 l -0.008,-3.7465 c -0.004,-2.06058 -0.17841,-5.51815 -0.38677,-7.6835 -0.20835,-2.16535 -0.44803,-5.70865 -0.5326,-7.874 -0.13259,-3.39453 -0.079,-4.32674 0.3889,-6.76559 2.23124,-11.6297999 10.75863,-25.5282 20.77816,-33.86534 4.70696,-3.91661 7.84284,-4.59487 10.38976,-2.24719 2.8344,2.61267 4.46906,7.80191 6.20389,19.6944001 1.32301,9.06932 1.28419,14.6138599 -0.14736,21.0520999 -1.17077,5.2654 -2.81475,9.54888 -6.71949,17.50804 -1.37327,2.79921 -2.85935,5.99961 -3.30241,7.112 -1.8966,4.762 -2.25088,8.29277 -1.16409,11.6014 1.07952,3.28646 3.68293,9.93402 4.02412,10.27522 0.27251,0.27251 0.95207,0.0857 3.82514,-1.05123 21.12788,-8.36102 40.01539,-8.5963 58.081451,-0.72355 9.159184,3.99138 19.04025,10.69881 30.094368,20.42854 11.882798,10.45913 18.097254,24.566173 18.282648,41.502203 0.04768,4.35549 0.08157,4.63817 0.715687,5.969 0.366103,0.76835 0.74121,1.81417 0.833572,2.32402 0.154554,0.85322 0.284684,0.96962 1.633853,1.46155 1.949094,0.71066 3.604207,2.20974 4.566963,4.13639 0.794433,1.58981 1.031824,3.47568 0.536153,4.2593 -0.173393,0.27411 0.01349,0.58227 0.719793,1.18684 1.005993,0.86108 1.558714,2.17469 1.548158,3.67936 -0.01125,1.60485 -1.642763,4.89819 -3.963881,8.00141 l -1.074234,1.43619 0.522287,0.70643 c 1.53621,2.07784 -1.173058,4.65119 -8.813141,8.37105 -5.508963,2.68224 -9.251602,3.73037 -15.579445,4.36303 l -3.089555,0.30892 -0.05689,0.77424 c -0.03129,0.42586 -0.06181,3.00312 -0.06781,5.72727 -0.01255,5.70012 -0.226644,6.65356 -2.324445,10.3518 l -1.189393,2.09679 -2.308233,0.73663 c -7.300201,2.32971 -35.458566,7.58065 -49.254526,9.18494 -5.60245,0.65151 -12.65551,0.70559 -15.5377,0.11915 -3.73431,-0.75981 -6.2577,-2.39301 -6.61154,-4.27911 -0.22452,-1.19682 0.6461,-3.29753 2.36232,-5.70004 4.23955,-5.93489 5.20199,-7.18698 5.91423,-7.69414 0.82659,-0.58857 6.42783,-2.06777 11.92399,-3.14892 3.8395,-0.75527 10.33505,-1.51409 17.59734,-2.0558 2.96431,-0.22108 6.27956,-0.48125 7.36723,-0.57815 l 1.97757,-0.17615 -1.8546,-1.54579 -1.85459,-1.54577 -2.91698,0.20345 c -3.32462,0.23193 -10.6479,-0.11519 -14.12157,-0.66931 -5.54143,-0.88397 -12.94913,-4.59237 -19.26027,-9.64197 -0.96958,-0.77574 -1.83738,-1.32364 -1.92844,-1.21755 -0.0911,0.10612 -0.47955,1.10734 -0.86331,2.22494 -0.98842,2.87843 -3.09937,7.13369 -5.22921,10.541 -3.92892,6.28551 -4.8035,8.59158 -6.85483,18.07459 -1.16483,5.38488 -1.59293,6.44588 -2.99183,7.41492 -1.47119,1.01912 -4.72006,2.06553 -8.43651,2.71724 -2.64645,0.46408 -4.35895,0.57031 -10.287,0.63813 -3.9116,0.0447 -7.6835,-0.0208 -8.382,-0.14555 z"
       id="path852" />
    <path
       style="fill:#000000;stroke-width:1"
       d="m -133.44498,-96.694132 c -5.33765,-0.62147 -8.48886,-2.12524 -9.88513,-4.717228 -0.67006,-1.24387 -1.05972,-2.81628 -1.34983,-5.44708 -0.27444,-2.4886 -1.45039,-3.69759 -4.88608,-5.02336 l -1.72196,-0.66448 -16.002,-0.1507 c -17.42554,-0.16412 -17.44945,-0.1662 -18.52904,-1.61219 -0.42322,-0.56686 -0.51239,-1.0488 -0.48947,-2.64533 0.0154,-1.0737 0.20206,-2.44019 0.41477,-3.03664 1.40785,-3.94777 6.24994,-8.83477 12.18977,-12.30282 l 1.96803,-1.14906 -0.79737,-0.98684 c -1.51983,-1.88093 -4.05274,-5.92306 -5.02676,-8.02191 -2.21886,-4.78127 -3.06493,-8.52285 -3.06493,-13.55409 0,-11.13905 5.29372,-22.06268 19.01027,-39.22783 4.15542,-5.20017 7.0171,-8.25063 9.57049,-10.20184 6.4586,-4.93544 13.79128,-7.31891 22.52801,-7.32266 6.28903,-0.003 11.90106,1.08382 20.4403,3.95736 6.91741,2.32778 8.66439,2.43002 9.62958,0.56355 1.273346,-2.46239 -1.14168,-7.25363 -7.01658,-13.92041 -4.58891,-5.20745 -8.19253,-11.77302 -11.06775,-20.16475 -2.82217,-8.2369 -3.72206,-14.8348 -2.79262,-20.47525 0.66364,-4.02747 1.68497,-6.062 3.40358,-6.78008 1.96612,-0.8215 4.18848,0.11523 10.15823,4.28173 6.95109,4.85142 10.417519,8.99303 18.779545,22.43735 2.085357,3.3528 4.696594,7.61302 5.802754,9.46714 l 2.011195,3.37115 0.177848,-2.25316 c 0.532016,-6.74015 3.646051,-16.32482 8.216679,-25.29008 1.198324,-2.3505 2.684453,-5.64869 3.302513,-7.3293 1.326487,-3.60694 1.9818,-4.56104 3.541934,-5.15686 1.602763,-0.6121 2.578245,-0.30517 3.279567,1.03189 0.459079,0.87523 0.529996,1.44562 0.520713,4.18822 -0.01138,3.36487 -0.229716,4.97028 -1.403094,10.3174 -1.412896,6.43862 -2.013875,13.60208 -2.011185,23.9726 0.0018,6.81339 0.115011,8.10048 0.731345,8.31233 0.224223,0.0771 2.80798,1.08413 5.74168,2.2379 6.236287,2.45262 10.502471,4.3528 12.866805,5.73095 3.567043,2.07919 6.778373,6.5623 14.652982,20.45598 1.810459,3.19431 3.819287,6.72224 4.464061,7.83984 1.696352,2.94032 2.262013,4.54423 2.284281,6.477 0.01697,1.473 -0.109177,1.91115 -1.170066,4.064 -0.653999,1.32715 -1.487064,3.48197 -1.851252,4.78849 -0.364191,1.30652 -0.853605,2.66767 -1.08759,3.02478 -2.343384,3.57646 -14.246426,8.95073 -19.824243,8.95073 h -1.243436 l -0.161539,1.911 c -0.209215,2.47503 -1.448562,5.77999 -3.078018,8.20815 -0.688033,1.02528 -2.761658,3.39241 -4.608055,5.26029 -3.745672,3.78925 -5.693167,6.48547 -7.209189,9.98084 -0.828202,1.90951 -2.289741,6.17815 -2.289741,6.68752 0,0.0795 0.680806,0.22161 1.512903,0.31575 1.824111,0.20637 4.734123,1.16523 6.334211,2.08713 3.68488,2.12308 7.7681,6.04435 10.415748,10.00262 1.936237,2.89471 2.026714,3.68505 0.579463,5.06179 -1.51477,1.44096 -3.469709,1.9284 -6.581653,1.64106 -2.474207,-0.22846 -20.820515,-0.26297 -21.043901,-0.0396 -0.06468,0.0647 0.169464,0.73429 0.52033,1.48802 2.031669,4.36443 -0.679095,6.614988 -8.882101,7.374168 -7.057591,0.65319 -12.517785,-0.4986 -19.871054,-4.191628 l -2.3438,-1.17713 -4.89457,5.1e-4 -4.89458,5.1e-4 -0.0263,1.46403 c -0.061,3.401398 -2.35002,5.120098 -7.83517,5.883008 -2.19461,0.30525 -7.50981,0.30807 -10.10957,0.005 z"
       id="path964" />
    <path
       style="fill:#000000;stroke-width:1"
       d="m 241.38714,481.3461 c -1.08938,-0.1969 -2.30449,-0.52544 -2.70025,-0.73008 -2.3416,-1.21089 -3.49859,-4.68896 -4.19488,-12.61024 -0.39032,-4.44075 -0.68329,-5.28981 -2.50835,-7.26977 -1.11567,-1.21035 -3.12278,-2.67209 -4.93284,-3.59247 -1.03695,-0.52728 -1.14434,-0.53362 -2.88554,-0.17057 -2.96664,0.61856 -3.22201,1.19446 -1.12466,2.53614 2.46484,1.57673 3.84315,4.21038 3.64355,6.96209 -0.14541,2.00501 -0.85958,3.34913 -2.11231,3.97549 -2.15814,1.07906 -9.2568,0.4829 -16.78734,-1.40983 -4.11201,-1.03353 -5.17934,-1.60892 -7.67055,-4.13517 -1.51927,-1.54063 -2.67317,-2.44084 -4.14228,-3.23154 -1.11999,-0.60282 -2.38913,-1.4978 -2.82026,-1.98884 -1.84178,-2.09768 -2.28047,-4.71828 -1.27006,-7.58713 0.30773,-0.87368 0.55779,-2.07383 0.55573,-2.667 -0.0114,-3.3107 -1.9747,-7.54569 -5.09963,-11.00097 -3.09629,-3.42362 -3.23309,-3.7641 -6.1674,-15.35052 -2.14955,-8.48773 -2.57018,-11.48173 -2.18504,-15.55263 0.83604,-8.83678 4.77574,-16.85847 14.94089,-30.42137 7.23804,-9.6574 13.00732,-13.8019 22.13694,-15.9026 0.92461,-0.21275 3.60667,-0.44355 6.096,-0.52458 4.81599,-0.15676 7.5372,0.11815 13.16774,1.33028 1.5844,0.34109 2.98458,0.55598 3.1115,0.47754 0.37851,-0.23394 0.2617,-3.47222 -0.17879,-4.95604 -0.86708,-2.92072 -3.15379,-6.65009 -6.06224,-9.88683 -1.85212,-2.06116 -2.49395,-3.16422 -3.54567,-6.09362 -2.28508,-6.36477 -5.22777,-21.4184 -5.64741,-28.88985 -0.1875,-3.33825 -0.10048,-3.45674 2.04229,-2.78129 4.87548,1.53686 16.79329,11.0337 23.00524,18.33199 4.81056,5.65182 8.06203,12.23082 9.31944,18.85673 l 0.44533,2.34674 1.81725,-5.52174 c 2.89847,-8.80699 5.41139,-14.64536 7.65998,-17.7967 3.17477,-4.44935 10.23406,-9.99976 17.90453,-14.07753 3.01684,-1.60381 5.32504,-0.56706 7.07484,3.17773 2.36482,5.06099 1.81384,12.22908 -1.77157,23.04777 -2.06718,6.23756 -3.62715,9.59826 -5.91457,12.74206 -6.03263,8.29118 -8.57989,13.34706 -8.57989,17.02965 0,1.3321 0.24069,2.25901 1.37348,5.28922 3.35473,8.97391 7.33875,23.17467 9.26125,33.01107 1.26164,6.45523 1.67881,10.96526 1.33129,14.3931 -0.74059,7.30482 -3.68796,14.87428 -10.81332,27.7709 -2.84678,5.15254 -3.73151,7.42554 -3.8912,9.99713 -0.0702,1.12952 0.0109,2.61821 0.18669,3.429 0.303,1.39747 1.87988,4.86819 3.69641,8.13585 0.80284,1.44416 0.86459,1.68203 0.56048,2.159 -0.49794,0.78095 -2.35245,1.62009 -4.24508,1.92083 -2.36741,0.37619 -6.89473,0.32608 -9.33465,-0.10332 -4.45674,-0.78433 -4.81358,-1.32169 -4.6463,-6.99649 0.0638,-2.16535 0.12078,-5.59435 0.12655,-7.62 0.01,-3.47106 -0.0285,-3.76627 -0.66729,-5.12991 -0.77955,-1.66422 -2.253,-3.23186 -4.41449,-4.6967 -1.62357,-1.1003 -3.66319,-2.20269 -3.80779,-2.05809 -0.30884,0.30885 -0.59848,12.96714 -0.37298,16.30038 0.30861,4.56173 0.51778,5.4257 1.79058,7.39666 1.28143,1.98429 1.76837,3.41171 1.76837,5.18377 0,1.64285 -0.75192,3.3917 -1.778,4.13538 -1.55511,1.12713 -6.81477,1.52705 -10.74372,0.81692 z"
       id="path962" />
    <path
       id="path958"
       style="fill:#000000;stroke-width:1"
       d="m 128.82417,-471.28298 c -3.21926,0.14238 -5.37386,2.90013 -7.5122,9.06095 -2.4944,7.18664 -3.95312,15.63456 -3.94912,22.87199 0.004,6.82257 0.58021,8.76074 4.04679,13.60485 4.35629,6.0874 5.16547,7.87203 4.57078,10.08052 -0.58537,2.17394 -4.9043,5.45204 -11.46029,8.69921 -6.3672,3.15367 -10.35017,4.28213 -15.193384,4.30413 -3.96108,0.018 -3.59687,0.11632 -12.7,-3.42149 -15.801028,-6.14085 -25.63713,-8.47515 -37.101612,-8.80463 -10.33167,-0.29692 -18.86808,1.18739 -28.079422,4.8829 -14.5823052,5.85031 -25.8460165,15.80202 -32.92719,29.09228 -5.421762,10.17583 -8.571568,23.29986 -8.571568,35.71204 v 2.93418 l -1.544093,-1.42937 c -2.639711,-2.44391 -4.164462,-2.94193 -5.51801,-1.80299 -1.522801,1.28135 -1.951907,3.23842 -1.149799,5.24309 0.39588,0.98941 0.39588,1.16427 0,2.64997 -0.535837,2.01094 -0.531265,2.35896 0.05633,4.03076 0.846045,2.40716 4.230793,7.12079 7.116879,9.91103 0.571193,0.55224 1.038696,1.13077 1.038696,1.28571 0,0.15492 -0.343128,0.53505 -0.762228,0.8449 -0.4191,0.30986 -0.761712,0.76935 -0.761712,1.02061 0,1.88803 6.517281,7.91539 9.982338,9.232 4.8251823,1.83344 15.460739,2.22651 19.5765822,0.72347 0.7859699,-0.28702 2.0864708,-0.7662 2.8897458,-1.06505 1.077785,-0.40099 2.059056,-0.54704 3.746025,-0.55604 2.967299,-0.0164 4.860666,0.53597 6.199105,1.80919 1.08116,1.02847 1.065765,0.98407 1.648995,4.76353 1.112656,7.21028 3.800201,12.58194 6.844026,13.67927 0.645274,0.23261 2.883851,0.4862 5.755204,0.65216 6.451181,0.37282 25.173892,1.82941 40.894145,3.1812 18.120309,1.55814 22.933252,1.43522 24.637767,-0.62787 0.98029,-1.18651 2.69214,-1.405 7.97626,-1.01854 6.31571,0.4619 10.29193,-0.0107 10.69185,-1.27072 0.27424,-0.86403 -0.65533,-2.50432 -2.28048,-4.02456 l -1.59525,-1.49242 1.36012,-0.42891 c 1.43637,-0.45278 2.8975,-1.49237 2.8975,-2.06138 0,-0.95372 -1.50012,-2.01643 -5.81825,-4.12171 -3.88391,-1.89357 -4.67236,-2.38182 -6.02392,-3.7331 -1.93324,-1.93292 -2.13922,-2.69596 -1.8681,-6.9231 0.28262,-4.407 0.93969,-6.39304 2.73472,-8.26461 1.14155,-1.19022 2.14691,-1.50848 7.4197,-2.35128 13.16502,-2.10434 21.46591,-5.64424 26.96424,-11.498 2.37554,-2.52911 3.28615,-4.20253 7.14944,-13.14287 5.23273,-12.10943 7.0123,-15.33964 10.04796,-18.23506 2.12608,-2.02787 3.58583,-2.6393 7.42849,-3.11247 8.03595,-0.9895 14.46,-3.14745 17.49609,-5.87716 1.4065,-1.26455 1.94769,-2.2814 2.30167,-4.32325 0.14033,-0.80953 0.55116,-2.30586 0.9126,-3.32486 0.59845,-1.68714 0.62885,-1.95371 0.34003,-2.98535 -0.66355,-2.3699 -2.9989,-5.93975 -7.90908,-12.09022 -3.90144,-4.88695 -4.85214,-6.32474 -5.63944,-8.52713 -1.07525,-3.00799 -1.82546,-4.23769 -3.54811,-5.81618 -2.25262,-2.06412 -4.32849,-3.02051 -13.76091,-6.33966 -4.4704,-1.57307 -9.18929,-3.24007 -10.48619,-3.70469 l -2.35799,-0.84491 -0.61495,-1.94665 c -1.30856,-4.14234 -1.39641,-6.56702 -0.5271,-14.56655 0.45007,-4.14153 0.51003,-10.01532 0.13333,-13.08758 -0.59515,-4.85351 -2.31362,-9.35543 -4.57544,-11.98789 -1.26297,-1.46992 -5.0034,-4.01133 -7.00835,-4.76147 -1.34851,-0.50454 -2.54014,-0.74767 -3.61322,-0.70022 z m -49.978862,150.93343 c 1.131213,0 1.31355,0.0891 2.159042,1.05419 0.580999,0.66319 1.243851,1.91888 1.786969,3.38636 0.474793,1.28285 1.825692,4.46617 3.002402,7.07399 1.176711,2.60781 2.201029,4.88397 2.27583,5.0586 0.168449,0.39348 -0.07103,0.37628 -1.116211,-0.0811 -2.870751,-1.25633 -13.008653,-1.82712 -25.043948,-1.41025 -11.062709,0.38318 -10.250401,0.41824 -8.556584,-0.36845 2.826177,-1.31257 5.024225,-4.58902 5.813599,-8.66562 0.271936,-1.40439 0.537649,-2.15067 0.790649,-2.22157 0.20955,-0.0587 3.63824,-0.63535 7.61969,-1.28158 5.772274,-0.93688 7.522218,-1.31373 8.636164,-1.85983 0.935223,-0.45847 1.805268,-0.68471 2.632398,-0.68471 z" />
    <path
       style="fill:#000000;stroke-width:1"
       d="m 229.74926,-55.927634 c -2.30505,-0.11171 -6.64845,-0.32873 -9.652,-0.48227 -9.52574,-0.48697 -11.94107,-1.25679 -11.93632,-3.80433 0.003,-1.65967 0.97625,-2.64234 4.51822,-4.56243 3.75395,-2.035 4.74767,-3.98513 4.58572,-8.99917 -0.079,-2.44531 -0.17358,-2.96095 -0.69837,-3.80705 -0.7267,-1.1716 -1.90274,-1.9432 -2.94625,-1.93299 -0.68456,0.007 -0.83602,0.16792 -1.49027,1.58656 -0.40053,0.8685 -2.09519,4.55089 -3.76588,8.18309 -2.86928,6.23801 -3.12044,6.68404 -4.53164,8.04819 -1.0238,0.98964 -2.26939,1.82903 -3.95757,2.667 l -2.46355,1.22281 -6.11954,-0.007 c -5.44345,-0.007 -6.27159,-0.0626 -7.49577,-0.508 -2.88991,-1.05133 -3.03352,-2.77449 -0.44288,-5.31383 1.44831,-1.4196 4.18971,-3.11757 5.7561,-3.56519 1.83457,-0.52426 3.62067,-2.55392 5.44365,-6.18597 3.09761,-6.17156 4.98488,-16.41378 3.84536,-20.86867 -0.68397,-2.67393 -2.81135,-6.643746 -6.46544,-12.064996 -6.52666,-9.68296 -7.13314,-10.62436 -8.24604,-12.79987 -1.54676,-3.02361 -1.82006,-4.32155 -1.7974,-8.53613 0.0273,-5.08829 1.0842,-10.49168 3.42059,-17.48862 0.55291,-1.65582 1.00528,-3.056 1.00528,-3.1115 0,-0.0555 -1.17157,-0.10155 -2.6035,-0.10236 -7.96394,-0.005 -12.4841,-2.50893 -14.26754,-7.9051 -2.28917,-6.92633 1.86584,-13.72925 12.75334,-20.88082 2.51499,-1.652 13.32441,-8.06213 15.1667,-8.99404 0.5588,-0.28267 1.98755,-0.83859 3.175,-1.23538 2.06258,-0.68922 2.37452,-0.72194 6.985,-0.73268 l 4.826,-0.0113 0.30137,-0.91839 c 0.29876,-0.91042 0.60485,-3.35315 1.61834,-12.91487 0.63068,-5.94993 1.47767,-10.37946 2.34838,-12.28135 1.17607,-2.56885 4.02252,-4.71758 8.15843,-6.15857 4.11604,-1.43409 8.39932,-1.76041 9.9313,-0.75663 1.34493,0.88123 2.1544,3.59328 2.15125,7.20755 -0.003,2.94379 -0.3571,5.00644 -1.37373,7.99167 -1.26685,3.72004 -2.82459,6.09948 -6.50995,9.94406 -1.75265,1.82835 -3.55996,3.86953 -4.01627,4.53596 -1.89057,2.7611 -2.84074,5.68009 -2.47815,7.61294 0.089,0.47419 0.63863,1.59607 1.22148,2.49306 1.58593,2.44068 2.28933,4.69459 2.43525,7.80336 0.1504,3.20419 -0.16733,5.27239 -1.62567,10.5816 -1.37036,4.98884 -1.58486,6.60433 -1.02164,7.69351 0.89146,1.72389 2.87944,1.71208 9.90242,-0.0589 4.27246,-1.07736 4.72706,-1.14223 7.99955,-1.14142 6.52437,0.003 13.87292,1.00482 18.5961,2.53863 9.67425,3.14161 16.00754,8.99695 23.35299,21.59049 7.07672,12.13286 10.00542,21.78379 10.33965,34.072206 0.2743,10.08459 -1.14932,17.58488 -4.74388,24.99307 -3.19872,6.59246 -7.293,10.64239 -13.08722,12.94551 -9.4983,3.77548 -26.24798,5.38094 -46.101,4.41882 z"
       id="path956" />
    <path
       style="fill:#000000;stroke-width:1"
       d="m 92.109723,189.27256 c -1.76352,-0.17277 -2.26408,-0.48473 -2.47571,-1.54289 -0.23759,-1.18796 0.43873,-2.91298 2.11452,-5.39311 l 1.5588,-2.30703 -1.25445,0.14859 c -1.89601,0.22454 -3.42451,1.07292 -5.70454,3.16624 -1.13657,1.04351 -2.64122,2.2843 -3.34366,2.75735 l -1.27716,0.86009 -8.1314,-0.004 c -8.81393,-0.004 -10.09074,-0.14621 -12.144199,-1.34963 -1.36535,-0.80015 -3.08463,-2.67904 -3.81315,-4.1672 -0.50053,-1.02243 -0.50592,-1.11928 -0.10863,-1.95237 0.62275,-1.30597 2.86471,-3.33256 7.680599,-6.94281 5.09046,-3.8161 5.54906,-4.42481 5.40852,-7.17886 -0.16025,-3.14012 -2.38737,-6.29729 -6.42383,-9.10638 -1.11799,-0.77803 -2.650489,-2.04137 -3.405609,-2.80741 -2.72235,-2.76185 -5.62204,-8.00837 -7.52122,-13.60838 -0.52116,-1.5367 -1.09906,-3.09136 -1.28422,-3.45481 -1.22124,-2.39687 -6.124727,-4.51698 -10.522637,-4.54962 -0.90805,-0.007 -2.50825,-0.12182 -3.556,-0.2557 -5.72783,-0.73203 -9.73221,-5.21866 -12.30696,-13.78913 -0.84976,-2.82849 -0.90091,-3.20446 -0.8986,-6.604 0.003,-4.76001 0.90183,-12.608479 2.18671,-19.098739 1.95067,-9.853452 9.65248,-16.967382 25.725677,-23.762032 3.15516,-1.33378 3.57876,-1.83015 3.58023,-4.19537 0,-1.73767 -0.45319,-3.48463 -1.57564,-6.05945 -1.10693,-2.53931 -2.14813,-6.93522 -2.49537,-10.53562 -1.08616,-11.26164 3.84617,-20.42165 9.59185,-17.81342 2.870529,1.30304 6.458229,6.28139 8.701179,12.07389 0.32459,0.8382 0.66776,1.61374 0.76263,1.72341 0.0949,0.10968 0.60811,-0.46182 1.14049,-1.27 2.84292,-4.31568 7.43567,-9.18481 9.94329,-10.54156 1.71643,-0.92867 4.05493,-1.52115 5.23722,-1.32687 2.92514,0.4807 4.50238,5.87393 5.06903,17.33319 0.22349,4.51958 0.22184,6.52163 -0.007,8.47164 -0.54973,4.68541 -3.00896,10.72439 -6.65396,16.33972 -1.51961,2.34107 -1.64335,2.63698 -1.61333,3.85844 0.0618,2.51612 2.16944,5.87542 4.46247,7.11273 1.24702,0.67287 3.78765,0.54171 7.82402,-0.40388 13.680537,-3.20495 25.094047,-2.86416 38.582367,1.15201 13.66327,4.06827 23.32306,14.690782 30.8787,33.956221 0.90795,2.31506 2.63799,7.15935 3.84455,10.76508 1.20655,3.60573 2.764,8.09892 3.461,9.98487 1.99085,5.38693 2.36611,8.65124 1.59133,13.843 -1.29575,8.68286 -6.70694,20.33001 -10.6415,22.90501 -1.76919,1.15783 -2.64686,2.05595 -5.9132,6.05099 -3.2434,3.967 -4.33766,4.92892 -6.55825,5.76516 -1.50396,0.5664 -1.70678,0.57498 -15.42814,0.65309 -9.57761,0.0545 -14.06294,-0.006 -14.4145,-0.19398 -1.06319,-0.56901 -0.55804,-2.86162 1.22867,-5.57632 0.51039,-0.77546 1.01654,-1.54777 1.12482,-1.71622 0.21008,-0.3269 -0.35169,-0.3016 -4.61996,0.20807 -3.40794,0.40694 -4.06573,0.94468 -5.35041,4.37386 -0.4274,1.14089 -1.00205,2.56011 -1.27698,3.15384 l -0.4999,1.0795 -9.4648,-0.0387 c -5.205657,-0.0213 -10.161857,-0.10703 -11.013817,-0.1905 z"
       id="path954" />
  </g>
</svg>
