<?xml version="1.0" encoding="UTF-8" standalone="no"?>
<!-- Created with Inkscape (http://www.inkscape.org/) -->

<svg
   width="206.47444mm"
   height="227.52304mm"
   viewBox="0 0 206.47444 227.52304"
   version="1.1"
   id="svg5"
   sodipodi:docname="bunny_4.svg"
   inkscape:version="1.1.2 (b8e25be8, 2022-02-05)"
   xmlns:inkscape="http://www.inkscape.org/namespaces/inkscape"
   xmlns:sodipodi="http://sodipodi.sourceforge.net/DTD/sodipodi-0.dtd"
   xmlns="http://www.w3.org/2000/svg"
   xmlns:svg="http://www.w3.org/2000/svg">
  <sodipodi:namedview
     id="namedview7"
     pagecolor="#ffffff"
     bordercolor="#666666"
     borderopacity="1.0"
     inkscape:pageshadow="2"
     inkscape:pageopacity="0.0"
     inkscape:pagecheckerboard="0"
     inkscape:document-units="mm"
     showgrid="false"
     inkscape:zoom="0.11949675"
     inkscape:cx="1803.3964"
     inkscape:cy="-171.55279"
     inkscape:window-width="1195"
     inkscape:window-height="771"
     inkscape:window-x="267"
     inkscape:window-y="25"
     inkscape:window-maximized="0"
     inkscape:current-layer="layer1"
     fit-margin-top="0"
     fit-margin-left="0"
     fit-margin-right="0"
     fit-margin-bottom="0" />
  <defs
     id="defs2" />
  <g
     inkscape:label="Layer 1"
     inkscape:groupmode="layer"
     id="layer1"
     transform="translate(572.26166,-167.02106)">
    <path
       style="fill:#f7f7f7;stroke-width:1;stroke:#4d4d4d;stroke-opacity:1;fill-opacity:1"
       d="m -512.97425,394.38446 c -1.56901,-0.28034 -2.27233,-1.01811 -2.04662,-2.14683 0.39119,-1.95634 3.04194,-5.46527 5.76355,-7.6295 2.339,-1.85997 3.44834,-3.04638 4.15804,-4.44691 0.7362,-1.45283 2.18388,-5.33209 1.98985,-5.33209 -0.073,0 -0.42619,0.23086 -0.78492,0.51303 -0.35872,0.28219 -1.44122,0.7527 -2.40555,1.04561 -2.24835,0.68291 -5.86122,0.59932 -7.43635,-0.17208 -0.9072,-0.44427 -1.02325,-0.60635 -1.08366,-1.51356 -0.0882,-1.32459 0.73976,-2.74041 3.63918,-6.223 1.22122,-1.46685 2.38341,-3.05603 2.58264,-3.53149 0.47635,-1.1368 0.46077,-4.95206 -0.0297,-7.26748 -0.91624,-4.32557 -2.74712,-8.1075 -4.97814,-10.28303 -1.83762,-1.7919 -3.93428,-3.27859 -12.19535,-8.64736 -12.75498,-8.28934 -15.57522,-10.58746 -17.28581,-14.08565 -1.35595,-2.77294 -1.81951,-5.12856 -1.94941,-9.906 -0.12865,-4.73146 0.205,-8.17852 1.34443,-13.88953 l 0.64273,-3.22151 -1.19214,-1.60449 c -1.65056,-2.22146 -3.50764,-6.20781 -4.27788,-9.18286 -1.68588,-6.51162 -1.24666,-14.82156 0.93699,-17.72776 2.77134,-3.6883 4.00621,-9.56345 2.87591,-13.68285 -0.69815,-2.54445 -0.26673,-5.52625 1.26727,-8.75891 l 0.43275,-0.91196 -1.31836,-2.84805 c -1.74863,-3.77764 -4.82728,-9.44334 -6.58529,-12.11908 -1.41309,-2.15077 -3.07515,-3.95252 -5.59377,-6.06395 -2.19285,-1.8383 -4.3394,-5.45673 -6.21326,-10.47366 -1.25493,-3.35986 -1.98091,-5.9497 -3.19225,-11.38799 -1.16284,-5.22059 -2.27875,-9.18055 -4.71207,-16.72156 -1.74564,-5.40987 -1.96943,-6.85327 -1.27173,-8.20247 0.51398,-0.9939 2.29961,-2.26837 3.17821,-2.26837 2.06027,0 8.4713,4.76976 18.26432,13.58856 10.67438,9.61248 21.56521,20.36034 23.67931,23.36844 3.5383,5.03456 5.54205,10.83218 5.54205,16.03527 v 1.87173 h 2.54 2.54 l -0.008,-3.7465 c -0.004,-2.06058 -0.1784,-5.51815 -0.38676,-7.6835 -0.20835,-2.16535 -0.44803,-5.70865 -0.53261,-7.874 -0.13258,-3.39453 -0.079,-4.32674 0.38891,-6.7656 2.23124,-11.62979 10.75863,-25.52819 20.77815,-33.86534 4.70696,-3.9166 7.84284,-4.59486 10.38977,-2.24719 2.8344,2.61267 4.46906,7.80192 6.20389,19.6944 1.32301,9.06933 1.28419,14.61387 -0.14736,21.05211 -1.17077,5.26539 -2.81475,9.54888 -6.71949,17.50804 -1.37327,2.79921 -2.85936,5.99961 -3.30241,7.112 -1.8966,4.76199 -2.25089,8.29277 -1.16409,11.6014 1.07952,3.28646 3.68293,9.93402 4.02412,10.27522 0.2725,0.27251 0.95207,0.0858 3.82514,-1.05123 21.12788,-8.36102 40.01539,-8.5963 58.08145,-0.72355 9.15919,3.99138 19.04025,10.69881 30.09437,20.42854 11.8828,10.45913 18.09725,24.56617 18.28265,41.5022 0.0477,4.35549 0.0816,4.63817 0.71569,5.969 0.3661,0.76835 0.74121,1.81417 0.83357,2.32403 0.15455,0.85321 0.28468,0.96962 1.63385,1.46154 1.94909,0.71067 3.60421,2.20975 4.56696,4.13639 0.79444,1.58981 1.03183,3.47569 0.53616,4.2593 -0.1734,0.27412 0.0135,0.58227 0.71979,1.18684 1.00599,0.86109 1.55871,2.1747 1.54816,3.67937 -0.0112,1.60485 -1.64277,4.89819 -3.96388,8.00141 l -1.07424,1.43619 0.52229,0.70642 c 1.53621,2.07785 -1.17306,4.6512 -8.81314,8.37106 -5.50897,2.68224 -9.2516,3.73037 -15.57945,4.36303 l -3.08955,0.30892 -0.0569,0.77424 c -0.0313,0.42585 -0.0618,3.00312 -0.0678,5.72727 -0.0126,5.70011 -0.22665,6.65355 -2.32445,10.35179 l -1.18939,2.0968 -2.30823,0.73662 c -7.3002,2.32972 -35.45857,7.58066 -49.25453,9.18495 -5.60245,0.65151 -12.6555,0.70559 -15.5377,0.11915 -3.73431,-0.75982 -6.2577,-2.39301 -6.61153,-4.27911 -0.22453,-1.19682 0.64609,-3.29753 2.36231,-5.70004 4.23955,-5.93489 5.20199,-7.18698 5.91423,-7.69415 0.82659,-0.58856 6.42783,-2.06776 11.92399,-3.14891 3.8395,-0.75527 10.33505,-1.51409 17.59734,-2.0558 2.96431,-0.22108 6.27956,-0.48125 7.36723,-0.57815 l 1.97757,-0.17615 -1.8546,-1.5458 -1.85459,-1.54576 -2.91698,0.20345 c -3.32462,0.23193 -10.6479,-0.11519 -14.12157,-0.66932 -5.54143,-0.88397 -12.94912,-4.59237 -19.26027,-9.64196 -0.96958,-0.77574 -1.83738,-1.32365 -1.92843,-1.21755 -0.0911,0.10612 -0.47956,1.10734 -0.86332,2.22494 -0.98842,2.87843 -3.09937,7.13369 -5.2292,10.541 -3.92893,6.28551 -4.80351,8.59157 -6.85483,18.07459 -1.16484,5.38487 -1.59294,6.44588 -2.99184,7.41492 -1.4712,1.01912 -4.72006,2.06553 -8.43651,2.71724 -2.64645,0.46408 -4.35896,0.57031 -10.287,0.63812 -3.9116,0.0448 -7.6835,-0.0208 -8.382,-0.14554 z"
       id="path852" />
  </g>
</svg>
