<?xml version="1.0" encoding="UTF-8" standalone="no"?>
<!-- Created with Inkscape (http://www.inkscape.org/) -->

<svg
   width="218.56093mm"
   height="185.25468mm"
   viewBox="0 0 218.56093 185.25468"
   version="1.1"
   id="svg5"
   sodipodi:docname="bunny_3.svg"
   inkscape:version="1.1.2 (b8e25be8, 2022-02-05)"
   xmlns:inkscape="http://www.inkscape.org/namespaces/inkscape"
   xmlns:sodipodi="http://sodipodi.sourceforge.net/DTD/sodipodi-0.dtd"
   xmlns="http://www.w3.org/2000/svg"
   xmlns:svg="http://www.w3.org/2000/svg">
  <sodipodi:namedview
     id="namedview7"
     pagecolor="#ffffff"
     bordercolor="#666666"
     borderopacity="1.0"
     inkscape:pageshadow="2"
     inkscape:pageopacity="0.0"
     inkscape:pagecheckerboard="0"
     inkscape:document-units="mm"
     showgrid="false"
     inkscape:zoom="0.11949675"
     inkscape:cx="1150.6589"
     inkscape:cy="271.97393"
     inkscape:window-width="1195"
     inkscape:window-height="771"
     inkscape:window-x="267"
     inkscape:window-y="25"
     inkscape:window-maximized="0"
     inkscape:current-layer="layer1"
     fit-margin-top="0"
     fit-margin-left="0"
     fit-margin-right="0"
     fit-margin-bottom="0" />
  <defs
     id="defs2" />
  <g
     inkscape:label="Layer 1"
     inkscape:groupmode="layer"
     id="layer1"
     transform="translate(446.76282,-39.367146)">
    <path
       id="path958"
       style="fill:#f7f7f7;fill-opacity:1;stroke:#4d4d4d;stroke-width:3.77953;stroke-opacity:1"
       d="m -1091.4746,150.70117 c -12.1673,0.53811 -20.3106,10.96114 -28.3926,34.2461 -9.4276,27.16209 -14.9409,59.08927 -14.9258,86.44335 0.013,25.7861 2.193,33.11144 15.295,51.41993 16.4647,23.00746 19.523,29.7526 17.2753,38.09961 -2.2124,8.21646 -18.5359,20.60809 -43.3144,32.88086 -24.065,11.91938 -39.1188,16.18405 -57.4238,16.26757 -14.971,0.0682 -13.5945,0.43766 -48,-12.93359 -59.7205,-23.20951 -96.8962,-32.03011 -140.2266,-33.27539 -39.0488,-1.12218 -71.3124,4.48776 -106.127,18.45508 -55.1142,22.11137 -97.6857,59.72413 -124.4492,109.95508 -20.4917,38.45975 -32.3965,88.06048 -32.3965,134.97265 v 11.0918 l -5.8339,-5.40234 c -9.9769,-9.23679 -15.7417,-11.12103 -20.8575,-6.81641 -5.7554,4.8429 -7.3773,12.2397 -4.3457,19.81641 1.4963,3.73946 1.4963,4.40233 0,10.01757 -2.0253,7.60041 -2.0079,8.91377 0.2129,15.23243 3.1977,9.09788 15.9904,26.91319 26.8985,37.45898 2.1588,2.08724 3.9257,4.27573 3.9257,4.86133 0,0.58552 -1.2968,2.02223 -2.8808,3.19336 -1.584,1.17108 -2.8789,2.90582 -2.8789,3.85547 0,7.13586 24.6322,29.91836 37.7285,34.89453 18.2369,6.92957 58.4343,8.41515 73.9902,2.73437 2.9706,-1.0848 7.884,-2.89779 10.92,-4.02734 4.0735,-1.51555 7.7842,-2.06755 14.1601,-2.10156 11.215,-0.062 18.371,2.02763 23.4297,6.83984 4.0863,3.88713 4.0281,3.71734 6.2324,18.00195 4.2053,27.25142 14.363,47.55379 25.8672,51.70117 2.4389,0.87916 10.8996,1.83955 21.752,2.4668 24.3824,1.40908 95.1434,6.91236 154.5586,12.02149 v 0 c 68.4862,5.88903 86.6769,5.42641 93.1191,-2.3711 3.7051,-4.48445 10.1751,-5.31024 30.1465,-3.84961 23.8704,1.74577 38.8987,-0.0406 40.4102,-4.80273 1.0365,-3.26563 -2.4769,-9.4671 -8.6192,-15.21289 l -6.0293,-5.64063 5.1407,-1.62109 c 5.4288,-1.7113 10.9511,-5.63847 10.9511,-7.78906 0,-3.60461 -5.6697,-7.62116 -21.9902,-15.57813 -14.6793,-7.1568 -17.6593,-9.00413 -22.7676,-14.11133 -7.3067,-7.30552 -8.0852,-10.18942 -7.0605,-26.16601 1.0682,-16.65642 3.5535,-24.16069 10.3379,-31.23438 4.3145,-4.49847 8.1123,-5.70137 28.041,-8.88672 49.7575,-7.95341 81.131,-21.33258 101.9121,-43.45703 8.9784,-9.5588 12.4201,-15.88353 27.0215,-49.67383 19.77723,-45.76792 26.50319,-57.9766 37.97655,-68.91992 8.03557,-7.66439 13.55273,-9.97726 28.07617,-11.76562 30.37209,-3.73985 54.65197,-11.89389 66.12695,-22.21094 5.31591,-4.7794 7.36134,-8.62457 8.69922,-16.3418 0.53038,-3.05964 2.08315,-8.71311 3.44922,-12.56445 2.26186,-6.37655 2.37676,-7.38604 1.28516,-11.28516 -2.50791,-8.9571 -11.33442,-22.4494 -29.89258,-45.69531 -14.7456,-18.47036 -18.33883,-23.90257 -21.31446,-32.22656 -4.06393,-11.36878 -6.89935,-16.01651 -13.41015,-21.98242 -8.51384,-7.80144 -16.35968,-11.41612 -52.00977,-23.96094 -16.896,-5.9455 -34.73111,-12.24786 -39.63281,-14.00391 l -8.9121,-3.1914 -2.3242,-7.35938 c -4.9458,-15.65609 -5.2778,-24.81829 -1.9922,-55.05273 1.701,-15.65301 1.9277,-37.85315 0.5039,-49.46485 -2.2494,-18.34401 -8.7444,-35.35914 -17.293,-45.30859 -4.7734,-5.55564 -18.9105,-15.16091 -26.4883,-17.99609 -5.0967,-1.90692 -9.6005,-2.82586 -13.6562,-2.64649 z m -188.8965,570.45508 c 4.2754,0 4.9646,0.33694 8.1602,3.98437 2.1959,2.50655 4.7011,7.25241 6.7539,12.79883 1.7945,4.84857 6.9002,16.88 11.3476,26.73633 4.4474,9.85633 8.3189,18.46108 8.6016,19.1211 0.6366,1.48716 -0.2685,1.42211 -4.2188,-0.30665 -10.85,-4.74833 -49.1665,-6.90756 -94.6543,-5.33203 -41.8118,1.44828 -38.7416,1.58074 -32.3398,-1.39258 10.6816,-4.96089 18.9892,-17.34237 21.9727,-32.75 1.0278,-5.30793 2.032,-8.12851 2.9882,-8.39648 0.792,-0.22178 13.7509,-2.40131 28.7989,-4.84375 21.8164,-3.54096 28.4304,-4.9653 32.6406,-7.0293 3.5347,-1.7328 6.823,-2.58984 9.9492,-2.58984 z"
       transform="scale(0.26458333)" />
  </g>
</svg>
