<?xml version="1.0" encoding="UTF-8" standalone="no"?>
<!-- Created with Inkscape (http://www.inkscape.org/) -->

<svg
   width="125.87298mm"
   height="167.08304mm"
   viewBox="0 0 125.87298 167.08304"
   version="1.1"
   id="svg5"
   sodipodi:docname="bunny_5.svg"
   inkscape:version="1.1.2 (b8e25be8, 2022-02-05)"
   xmlns:inkscape="http://www.inkscape.org/namespaces/inkscape"
   xmlns:sodipodi="http://sodipodi.sourceforge.net/DTD/sodipodi-0.dtd"
   xmlns="http://www.w3.org/2000/svg"
   xmlns:svg="http://www.w3.org/2000/svg">
  <sodipodi:namedview
     id="namedview7"
     pagecolor="#ffffff"
     bordercolor="#666666"
     borderopacity="1.0"
     inkscape:pageshadow="2"
     inkscape:pageopacity="0.0"
     inkscape:pagecheckerboard="0"
     inkscape:document-units="mm"
     showgrid="false"
     inkscape:zoom="0.11949675"
     inkscape:cx="-171.55279"
     inkscape:cy="280.34236"
     inkscape:window-width="1195"
     inkscape:window-height="771"
     inkscape:window-x="267"
     inkscape:window-y="25"
     inkscape:window-maximized="0"
     inkscape:current-layer="layer1"
     fit-margin-top="0"
     fit-margin-left="0"
     fit-margin-right="0"
     fit-margin-bottom="0" />
  <defs
     id="defs2" />
  <g
     inkscape:label="Layer 1"
     inkscape:groupmode="layer"
     id="layer1"
     transform="translate(221.44932,-116.04092)">
    <path
       style="fill:#f7f7f7;fill-opacity:1;stroke:#4d4d4d;stroke-width:1;stroke-opacity:1"
       d="m -160.04125,282.34871 c -2.30505,-0.11171 -6.64845,-0.32872 -9.652,-0.48227 -9.52574,-0.48697 -11.94107,-1.25679 -11.93632,-3.80433 0.003,-1.65967 0.97625,-2.64234 4.51822,-4.56243 3.75395,-2.035 4.74767,-3.98513 4.58572,-8.99917 -0.079,-2.44531 -0.17358,-2.96095 -0.69837,-3.80705 -0.7267,-1.1716 -1.90274,-1.9432 -2.94625,-1.93299 -0.68456,0.007 -0.83602,0.16792 -1.49027,1.58656 -0.40053,0.8685 -2.09519,4.55089 -3.76588,8.18309 -2.86928,6.23801 -3.12044,6.68404 -4.53164,8.04819 -1.0238,0.98964 -2.26939,1.82903 -3.95757,2.667 l -2.46355,1.22281 -6.11954,-0.007 c -5.44345,-0.007 -6.27159,-0.0626 -7.49577,-0.508 -2.88991,-1.05134 -3.03352,-2.7745 -0.44288,-5.31384 1.44831,-1.4196 4.18971,-3.11757 5.7561,-3.56519 1.83457,-0.52426 3.62067,-2.55392 5.44365,-6.18597 3.09761,-6.17156 4.98488,-16.41379 3.84536,-20.86867 -0.68397,-2.67393 -2.81135,-6.64375 -6.46544,-12.065 -6.52666,-9.68296 -7.13314,-10.62436 -8.24604,-12.79987 -1.54676,-3.02362 -1.82006,-4.32156 -1.7974,-8.53613 0.0273,-5.08828 1.0842,-10.49167 3.42059,-17.48861 0.55291,-1.65583 1.00528,-3.056 1.00528,-3.1115 0,-0.0555 -1.17157,-0.10155 -2.6035,-0.10236 -7.96394,-0.005 -12.4841,-2.50894 -14.26754,-7.90512 -2.28917,-6.92632 1.86584,-13.72925 12.75334,-20.88081 2.51499,-1.65201 13.32441,-8.06213 15.1667,-8.99405 0.5588,-0.28267 1.98755,-0.83859 3.175,-1.23538 2.06258,-0.68921 2.37452,-0.72193 6.985,-0.73268 l 4.826,-0.0112 0.30137,-0.91839 c 0.29876,-0.91042 0.60485,-3.35315 1.61834,-12.91487 0.63068,-5.94992 1.47767,-10.37946 2.34838,-12.28135 1.17607,-2.56885 4.02252,-4.71757 8.15843,-6.15857 4.11604,-1.43408 8.39932,-1.76041 9.9313,-0.75662 1.34493,0.88123 2.1544,3.59328 2.15125,7.20755 -0.003,2.94378 -0.3571,5.00643 -1.37373,7.99166 -1.26685,3.72005 -2.82459,6.09948 -6.50995,9.94406 -1.75265,1.82836 -3.55996,3.86954 -4.01627,4.53597 -1.89057,2.7611 -2.84074,5.68008 -2.47815,7.61293 0.089,0.4742 0.63863,1.59608 1.22148,2.49307 1.58593,2.44068 2.28933,4.69459 2.43525,7.80336 0.1504,3.20418 -0.16733,5.27238 -1.62567,10.58159 -1.37036,4.98884 -1.58486,6.60433 -1.02164,7.69351 0.89146,1.7239 2.87944,1.71209 9.90242,-0.0589 4.27246,-1.07737 4.72706,-1.14224 7.99955,-1.14143 6.52437,0.003 13.87292,1.00483 18.5961,2.53863 9.67425,3.14163 16.00754,8.99696 23.35299,21.59051 7.076715,12.13285 10.005415,21.78378 10.339645,34.0722 0.2743,10.08459 -1.14932,17.58488 -4.743875,24.99307 -3.19872,6.59247 -7.293,10.64239 -13.08722,12.94551 -9.4983,3.77549 -26.24798,5.38094 -46.101,4.41882 z"
       id="path956" />
  </g>
</svg>
